<svg
        xmlns="http://www.w3.org/2000/svg"
        viewBox="0 0 3155.4655870445345 3155.4655870445345"
>
    <g transform="scale(7.773279352226719) translate(10, 10)">
        <g
            transform="matrix(3.8593750000000004,0,0,3.8593750000000004,0,0)"
        >
            <path xmlns="http://www.w3.org/2000/svg" d="M0 0h100v100H0z"/>
        </g>

        <g
            fill="#fff"
            transform="matrix(6.136475042009073,0,0,6.136475042009073,95.18164051800535,54.5179136924018)"
        >
            <path
                    d="M6.92 22.08 l-3.84 0 l0 16.4 l3.84 0 l0 1.52 l-5.32 0 l0 -37.36 l5.32 0 l0 1.52 l-3.84 0 l0 16.4 l3.84 0 l0 1.52 z M18.32 29.2 l0 6.88 c0 2.44 -1 4.16 -4.08 4.16 l-0.56 0 c-3 0 -4.04 -1.72 -4.04 -4.16 l0 -9.76 l1.52 0 l0 9.12 c0 1.76 0.4 3.28 2.84 3.28 c2.4 0 2.8 -1.52 2.8 -3.28 l0 -6.64 c0 -2.6 -1.76 -4.8 -3.28 -7 c-2.56 -3.72 -3.88 -5.16 -3.88 -9.04 l0 -6.24 c0 -2.44 1 -4.16 4.04 -4.16 l0.56 0 c3.04 0 4.08 1.72 4.08 4.16 l0 9.84 l-1.52 0 l0 -9.2 c0 -1.76 -0.44 -3.28 -2.84 -3.28 s-2.8 1.52 -2.8 3.28 l0 6 c-0.04 2.52 1.08 4.2 3.08 7.08 c2.72 3.92 4.08 5.36 4.08 8.96 z M25.880000000000003 26.240000000000002 l4.32 0 l0 9.84 c0 2.44 -1 4.16 -4.04 4.16 l-0.56 0 c-3.04 0 -4.08 -1.72 -4.08 -4.56 l0 -29.56 c0 -2.04 1 -3.76 4.08 -3.76 l0.56 0 c3 0 4.04 1.72 4.04 4.16 l0 9.84 l-1.52 0 l0 -9.2 c0 -1.76 -0.4 -3.28 -2.84 -3.28 c-2.4 0 -2.8 1.52 -2.8 3.28 l0 28.28 c0 1.76 0.44 3.28 2.84 3.28 s2.8 -1.52 2.8 -3.28 l0 -7.72 l-2.8 0 l0 -1.48 z"
            />
        </g>
    </g>
</svg>